# xmcd
#
# Track frame offsets:
#	150
#	20171
#	41159
#	56192
#	77713
#	91142
#	108375
#	122313
#	137220
#	149654
#	168854
#	188211
#	204310
#	221085
#
# Disc length: 3235 seconds
#
# Revision: 65537
# Processed by: cddbd v1.5.2PL0 Copyright (c) Steve Scherf et al.
# Submitted via: audiograbber 1.83.01
#
DISCID=cd0ca10e
DTITLE=Miranda Lambert - Four The Record
DYEAR=2011
DGENRE=Country
TTITLE0=All Kinds Of Kinds
TTITLE1=Fine Tune
TTITLE2=Fastest Girl In Town
TTITLE3=Safe
TTITLE4=Mama's Broken Heart
TTITLE5=Dear Diamond (Duet with Patty Loveless)
TTITLE6=Same Old You
TTITLE7=Baggage Claim
TTITLE8=Easy Living
TTITLE9=Over You
TTITLE10=Look At Miss Ohio
TTITLE11=Better In The Long Run (Duet with Blake Shelton)
TTITLE12=Nobody's Fool
TTITLE13=Oklahoma Sky
EXTD=
EXTT0=
EXTT1=
EXTT2=
EXTT3=
EXTT4=
EXTT5=
EXTT6=
EXTT7=
EXTT8=
EXTT9=
EXTT10=
EXTT11=
EXTT12=
EXTT13=
PLAYORDER=
